<svg width="107" height="113" viewBox="0 0 107 113" fill="none" xmlns="http://www.w3.org/2000/svg">
<path d="M54.5501 103.623C56.2301 104.46 55.2501 108.16 54.5501 109.906C54.5502 111.581 58.0501 112 59.8 112L60.85 110.953L61.9 109.906H64H68.2L72.4 106.764L76.6 103.623L78.7 100.481V97.3396L82.9 95.2453C82.55 94.1981 81.85 91.8943 81.85 91.0566C81.85 90.0094 81.85 87.9151 82.9 86.8679C83.74 86.0302 85.35 85.8208 86.05 85.8208L88.15 83.7264L89.2 81.6321V80.5849L90.25 74.3019L89.2 72.2076L88.15 71.1604L87.1 65.9245C87.1 65.5755 87.31 64.8774 88.15 64.8774C88.99 64.8774 93.4 58.5943 95.5 55.4528H97.6C98.44 55.4528 100.05 53.3585 100.75 52.3113L101.8 50.217C102.15 49.5189 103.06 47.9132 103.9 47.0755C104.74 46.2377 105.65 42.5377 106 40.7925H102.85C102.01 40.7925 98.3 42.1887 96.55 42.8868H94.45L93.4 41.8396V39.7453L92.35 38.6981L89.2 35.5566C88.85 34.5094 87.94 32.4151 87.1 32.4151C86.05 32.4151 86.05 28.2264 85 28.2264C83.95 28.2264 83.95 24.0377 82.9 21.9434C81.85 19.8491 77.65 14.6132 77.65 12.5189C77.65 10.4245 76.6 11.4717 75.55 10.4245C74.5 9.37736 74.5 10.4245 72.4 11.4717L68.2 13.566L71.35 10.4245H70.3C68.9 10.4245 65.68 10.2151 64 9.37736C61.9 8.33019 61.9 8.33019 60.85 8.33019C60.01 8.33019 58.4 9.72641 57.7 10.4245C57 11.1226 55.39 12.5189 54.55 12.5189C53.71 12.5189 52.8 11.8208 52.45 11.4717L49.3 9.37736C48.6 9.37736 46.78 9.16792 45.1 8.33019C43 7.28302 43 6.23585 44.05 6.23585C45.1 6.23585 45.1 6.23585 45.1 4.14151C45.1 2.46604 43 1.34906 41.95 1C41.6 1.34906 40.69 2.04717 39.85 2.04717H31.45C30.4 2.04717 24.1 4.14151 23.05 5.18868C22 6.23585 19.9 5.18868 18.85 5.18868C17.8 5.18868 17.8 6.23585 16.75 7.28302C15.7 8.33019 14.65 8.33019 13.6 9.37736C12.76 10.2151 12.55 12.5189 12.55 13.566C12.55 13.9151 12.34 14.6132 11.5 14.6132C10.45 14.6132 7.3 17.7547 6.25 17.7547C5.41 17.7547 3.8 21.9434 3.1 24.0377C2.75 24.3868 2.26 25.2943 3.1 26.1321C3.94 26.9698 4.15 29.9717 4.15 31.3679L1 36.6038L2.05 37.6509V40.7925L5.2 42.8868C6.25 43.934 8.56 46.4472 9.4 48.1226C10.24 49.7981 13.95 52.3113 15.7 53.3585L16.75 51.2642H17.8H24.1C25.15 51.2642 28.3 50.217 29.35 49.1698C30.4 48.1226 33.55 48.1226 34.6 49.1698L37.75 52.3113C38.59 53.1491 40.2 51.2642 40.9 50.217C41.6 50.9151 43.21 52.3113 44.05 52.3113C45.1 52.3113 43 53.3585 41.95 54.4057C40.9 55.4528 41.95 56.5 41.95 57.5472C41.95 58.3849 41.25 59.9906 40.9 60.6887C41.25 61.0377 42.16 61.7358 43 61.7358C43.84 61.7358 46.1501 65.9245 47.2001 68.0189C47.5501 69.066 48.04 71.3698 47.2001 72.2076C46.3602 73.0453 48.2501 74.6509 49.3 75.3491L47.2 77.4434C46.15 78.4906 46.1501 79.5377 45.1001 80.5849C44.0501 81.6321 46.1501 86.8679 47.2001 87.9151C48.2501 88.9623 49.3001 92.1038 50.3501 95.2453C51.4001 98.3868 50.3501 97.3396 51.4001 99.434C52.4501 101.528 52.4501 102.575 54.5501 103.623Z" stroke="white" stroke-opacity="0.3"/>
</svg>
