<svg width="17" height="16" viewBox="0 0 17 16" fill="none" xmlns="http://www.w3.org/2000/svg">
<path d="M12.7913 13.958H4.20866C3.76663 13.958 3.34271 13.7824 3.03015 13.4698C2.71759 13.1573 2.54199 12.7334 2.54199 12.2913V3.70866C2.54199 3.26663 2.71759 2.84271 3.03015 2.53015C3.34271 2.21759 3.76663 2.04199 4.20866 2.04199H12.7913C13.2334 2.04199 13.6573 2.21759 13.9698 2.53015C14.2824 2.84271 14.458 3.26663 14.458 3.70866V12.2913C14.458 12.7334 14.2824 13.1573 13.9698 13.4698C13.6573 13.7824 13.2334 13.958 12.7913 13.958ZM4.20866 2.70866C3.94344 2.70866 3.68909 2.81402 3.50155 3.00155C3.31402 3.18909 3.20866 3.44344 3.20866 3.70866V12.2913C3.20866 12.5565 3.31402 12.8109 3.50155 12.9984C3.68909 13.186 3.94344 13.2913 4.20866 13.2913H12.7913C13.0565 13.2913 13.3109 13.186 13.4984 12.9984C13.686 12.8109 13.7913 12.5565 13.7913 12.2913V3.70866C13.7913 3.44344 13.686 3.18909 13.4984 3.00155C13.3109 2.81402 13.0565 2.70866 12.7913 2.70866H4.20866Z" fill="black"/>
<path d="M8.49994 11.0632C7.89419 11.0625 7.30222 10.8823 6.79889 10.5453C6.29555 10.2082 5.90343 9.72953 5.67211 9.16968C5.44078 8.60983 5.38063 7.99397 5.49926 7.39994C5.61789 6.80592 5.90997 6.2604 6.33859 5.83234C6.7672 5.40429 7.3131 5.11292 7.90728 4.99506C8.50146 4.87721 9.11725 4.93816 9.67679 5.17022C10.2363 5.40227 10.7145 5.79501 11.0509 6.29879C11.3873 6.80257 11.5667 7.39477 11.5666 8.00052C11.5655 8.81316 11.242 9.59215 10.667 10.1664C10.092 10.7406 9.31258 11.0632 8.49994 11.0632ZM8.49994 5.60052C8.02621 5.60118 7.5633 5.74222 7.16968 6.00582C6.77606 6.26943 6.46939 6.64377 6.28841 7.08156C6.10742 7.51936 6.06024 8.00097 6.15283 8.46557C6.24541 8.93017 6.4736 9.35691 6.80858 9.69189C7.14356 10.0269 7.5703 10.2551 8.03489 10.3476C8.49949 10.4402 8.9811 10.393 9.4189 10.2121C9.8567 10.0311 10.231 9.7244 10.4946 9.33078C10.7582 8.93716 10.8993 8.47425 10.8999 8.00052C10.8999 7.364 10.6471 6.75355 10.197 6.30347C9.74691 5.85338 9.13646 5.60052 8.49994 5.60052Z" fill="black"/>
<path d="M11.9667 5.27025C12.3625 5.27025 12.6833 4.94938 12.6833 4.55358C12.6833 4.15778 12.3625 3.83691 11.9667 3.83691C11.5709 3.83691 11.25 4.15778 11.25 4.55358C11.25 4.94938 11.5709 5.27025 11.9667 5.27025Z" fill="black"/>
</svg>
