<svg width="17" height="16" viewBox="0 0 17 16" fill="none" xmlns="http://www.w3.org/2000/svg">
<path d="M14.5467 10.78C14.32 10.16 12.9467 10.0733 12.3067 8.65333C12.2667 8.54667 12.2733 8.47333 12.38 8.40667C12.8733 8.08 13.22 7.9 13.42 7.52C13.5667 7.24667 13.5867 6.92667 13.4733 6.63333C13.32 6.22667 12.9333 5.96667 12.46 5.96667C12.2933 5.96667 12.16 6 12.0933 6.01333C12.1 5.73333 12.0933 5.44 12.0667 5.14667C11.98 4.12667 11.62 3.58667 11.2467 3.16C11.0267 2.91333 10.1533 2 8.5 2C6.84667 2 5.97334 2.91333 5.75334 3.16C5.38 3.58667 5.02 4.12667 4.93334 5.14667C4.91334 5.44 4.90667 5.73333 4.90667 6.01333C4.83334 5.99333 4.70667 5.96667 4.54 5.96667C4.07334 5.96667 3.68 6.22 3.52667 6.63333C3.41334 6.92 3.43334 7.24667 3.58 7.52C3.78667 7.90667 4.12667 8.08 4.62 8.40667C4.72667 8.48 4.73334 8.54667 4.69334 8.65333C4.04667 10.0733 2.68 10.16 2.45334 10.78C2.35334 11.0467 2.42 11.3467 2.66667 11.6C3.04667 11.9933 3.75334 12.1133 3.89334 12.2067C4.00667 12.3 3.99334 12.58 4.31334 12.8067C4.56667 12.98 4.84667 12.9933 5.14667 13C6.02 13.0333 6.21334 13.18 6.54667 13.3867C6.96667 13.6467 7.54 14 8.5 14C9.46 14 10.0333 13.6467 10.4533 13.3867C10.7867 13.18 10.98 13.0333 11.8533 13C12.1533 12.9867 12.4333 12.98 12.6867 12.8067C13.0133 12.58 13 12.3 13.1067 12.2067C13.2467 12.1133 13.9533 11.9933 14.3333 11.6C14.58 11.3467 14.6467 11.0467 14.5467 10.78ZM13.86 11.1333C13.6133 11.3933 13.02 11.4667 12.7067 11.68C12.3867 11.96 12.44 12.1733 12.3133 12.26C12.2267 12.32 12.0733 12.3267 11.8333 12.34C10.9 12.3733 10.56 12.5467 10.1533 12.8C9.2 13.3867 8.66667 13.3333 8.5 13.3333C8.33334 13.3333 7.8 13.3867 6.85334 12.7933C6.44667 12.54 6.11334 12.3733 5.17334 12.3333C4.93334 12.3267 4.78 12.3133 4.69334 12.2533C4.56667 12.1667 4.61334 11.9533 4.3 11.6733C3.98 11.46 3.39334 11.3867 3.14667 11.1267C3.10667 11.0867 3.07334 11.0333 3.06667 11.0267C3.11334 10.96 3.34 10.8267 3.50667 10.7333C4.02667 10.4267 4.82667 9.97333 5.31334 8.9C5.48667 8.43333 5.33334 8.06 4.99334 7.84C4.22667 7.35333 4.24 7.33333 4.16667 7.2C4.14034 7.14889 4.12495 7.09284 4.12151 7.03544C4.11807 6.97805 4.12664 6.92056 4.14667 6.86667C4.22667 6.65333 4.44667 6.63333 4.53334 6.63333C4.66 6.63333 4.65334 6.64 5.58 6.88C5.56667 5.94667 5.55334 5.64667 5.59334 5.20667C5.66667 4.33333 5.97334 3.92 6.24667 3.60667C6.43334 3.40667 7.16 2.65333 8.5 2.66667C9.84 2.65333 10.5667 3.40667 10.7467 3.60667C11.02 3.92 11.3267 4.33333 11.4 5.20667C11.44 5.64667 11.4267 5.94667 11.4133 6.88C12.3467 6.64 12.3333 6.63333 12.46 6.63333C12.5533 6.63333 12.7667 6.65333 12.8467 6.86667C12.8933 6.98 12.8867 7.1 12.8267 7.2C12.7533 7.33333 12.7667 7.34667 12.0067 7.84667C11.6667 8.06667 11.5133 8.44 11.6867 8.90667C12.1733 9.98 12.9733 10.4333 13.4933 10.74C13.66 10.84 13.8867 10.9667 13.9333 11.0333C13.9333 11.04 13.8933 11.0933 13.86 11.1333Z" fill="black"/>
</svg>
